<svg xmlns="http://www.w3.org/2000/svg" viewBox="0 0 80 80" fill="none"><path d="M78.7823 38.1277L67.9323 27.2777L78.7823 16.4277C79.2128 15.9965 79.4546 15.412 79.4546 14.8027C79.4546 14.1934 79.2128 13.6089 78.7823 13.1777L66.3023 0.697662C66.0879 0.476912 65.8314 0.301416 65.548 0.18158C65.2646 0.0617435 64.96 0 64.6523 0C64.3446 0 64.04 0.0617435 63.7566 0.18158C63.4732 0.301416 63.2167 0.476912 63.0023 0.697662L52.2023 11.5477L41.3523 0.697662C40.9126 0.283495 40.3314 0.0528564 39.7273 0.0528564C39.1233 0.0528564 38.542 0.283495 38.1023 0.697662L27.2523 11.5477L16.4023 0.697662C15.9626 0.283495 15.3814 0.0528564 14.7773 0.0528564C14.1733 0.0528564 13.592 0.283495 13.1523 0.697662L0.67231 13.1777C0.241799 13.6089 0 14.1934 0 14.8027C0 15.412 0.241799 15.9965 0.67231 16.4277L11.5223 27.2777L0.67231 38.1277C0.241799 38.5589 0 39.1433 0 39.7527C0 40.362 0.241799 40.9465 0.67231 41.3777L11.5223 52.2277L0.67231 63.0277C0.241799 63.4589 0 64.0433 0 64.6527C0 65.262 0.241799 65.8465 0.67231 66.2777L13.1523 78.8077C13.5835 79.2382 14.168 79.48 14.7773 79.48C15.3866 79.48 15.9711 79.2382 16.4023 78.8077L27.2523 67.9577L38.1023 78.8077C38.5335 79.2382 39.118 79.48 39.7273 79.48C40.3366 79.48 40.9211 79.2382 41.3523 78.8077L52.2023 67.9577L63.0023 78.8077C63.4335 79.2382 64.018 79.48 64.6273 79.48C65.2367 79.48 65.8211 79.2382 66.2523 78.8077L78.7823 66.3277C79.2128 65.8965 79.4546 65.312 79.4546 64.7027C79.4546 64.0934 79.2128 63.5089 78.7823 63.0777L67.9323 52.2277L78.7823 41.3777C79.2128 40.9465 79.4546 40.362 79.4546 39.7527C79.4546 39.1433 79.2128 38.5589 78.7823 38.1277ZM48.9523 39.7577L39.7323 48.9777L30.5023 39.7577L39.7223 30.5377L48.9523 39.7577ZM43.0023 27.2777L52.2023 18.0277L61.4223 27.2477L52.2023 36.4977L43.0023 27.2777ZM36.4923 27.2777L27.2723 36.4977L18.0023 27.2777L27.2523 18.0277L36.4923 27.2777ZM27.2523 43.0277L36.4723 52.2477L27.2523 61.4677L18.0023 52.2277L27.2523 43.0277ZM43.0023 52.2277L52.2023 43.0277L61.4223 52.2477L52.2023 61.4477L43.0023 52.2277ZM64.6723 5.57767L73.8923 14.7977L64.6723 24.0277L55.4523 14.8077L64.6723 5.57767ZM39.6723 5.57767L48.8923 14.7977L39.7223 24.0277L30.5023 14.7977L39.6723 5.57767ZM14.6723 5.57767L24.0023 14.7977L14.7723 24.0277L5.55231 14.7977L14.6723 5.57767ZM14.6723 30.5777L24.0023 39.7577L14.7823 48.9777L5.55231 39.7577L14.6723 30.5777ZM14.6723 73.9677L5.55231 64.6977L14.7723 55.4777L24.0023 64.6977L14.6723 73.9677ZM39.6723 73.9677L30.5023 64.6977L39.7223 55.4777L48.9423 64.6977L39.6723 73.9677ZM64.6723 73.9677L55.4523 64.7477L64.6723 55.5277L73.8923 64.7477L64.6723 73.9677ZM64.6723 49.0177L55.4523 39.7977L64.6723 30.5777L73.8923 39.7977L64.6723 49.0177Z" fill="black"></path></svg>